<svg xmlns="http://www.w3.org/2000/svg" viewBox="0 0 273.22 197.75"><defs><style>.cls-1{fill:#2e2d2d;}</style></defs><title>Asset 1</title><g id="Layer_2" data-name="Layer 2"><g id="Layer_2-2" data-name="Layer 2"><path class="cls-1" d="M271.66,74.58a15.27,15.27,0,0,0-5.26-5.85,16.68,16.68,0,0,0-2.18-1.23v-.76a5.09,5.09,0,0,0-2-4V50.5a3.49,3.49,0,0,0-2-3.15V26.29l-.05-.2a7.43,7.43,0,0,0-2-3.05,11.15,11.15,0,0,0-8-2.79,21.58,21.58,0,0,0-4.09.42l-.88-12.33V8.29a9.62,9.62,0,0,0-1.93-4.22,10,10,0,0,0-3.54-2.83,13.76,13.76,0,0,0-6-1.24,13.36,13.36,0,0,0-6.2,1.42,12.32,12.32,0,0,0-5,4.79,11.61,11.61,0,0,0-1.27,2.93l-.05.21,1,23.24-3,1.48V26.55a1.28,1.28,0,0,0,0-.21,7.73,7.73,0,0,0-.6-2.8c-.78-2-2.54-4.56-6.28-7.16s-9.34-5.16-18-7.26a6.63,6.63,0,0,0-1.86-.81,26.53,26.53,0,0,0-7.41-.81c-7,0-19,1.39-39.67,6.74a7.38,7.38,0,0,0-4.78,3.92l-6.24,1a11,11,0,0,0-8.16,6.2l-1,2.23-3.17.45-1.32.19-8.6,1.23H103.2a36.26,36.26,0,0,0-8.18.93l-18.2,4.2A26.43,26.43,0,0,0,69,37.83l-14.41,8.8-11.2,3.73L39.24,48a16.83,16.83,0,0,0-8.43-2.26,16.07,16.07,0,0,0-2.76.23,9.35,9.35,0,0,0-7.83,9.23v2a6.13,6.13,0,0,0-2.8,1.6,6,6,0,0,0-1.76,4.27c0,.18,0,.37,0,.56l2.24,24.6.1,1.16.19,2a59.85,59.85,0,0,0-.88,10.89,86.41,86.41,0,0,0,.73,11l-7.87,1.85a13.12,13.12,0,0,0-8.55,6.56l-.36.7a12.81,12.81,0,0,0-1.1,3.8l0,.13A17.45,17.45,0,0,0,0,128.78a18.18,18.18,0,0,0,3.82,11.15,8.94,8.94,0,0,0,7,3.44,9.11,9.11,0,0,0,1.47-.12l12.33-2.05c.47,1.55,1.39,4.38,2.8,7.86a83.14,83.14,0,0,0,10,18.2,87,87,0,0,0,5.77,10.12c3.79,5.75,9.32,12.81,16.46,18.05a12,12,0,0,0,7.11,2.32,12.42,12.42,0,0,0,4.6-.89l6.09-2.44a6.22,6.22,0,0,0,3.92-5.77c0-.1,0-.19,0-.29L84,187l11.22.75c.49,0,1,0,1.46,0a22.17,22.17,0,0,0,5.67-.74L125,181a17.25,17.25,0,0,0,7.45-4.18l31.33-7.62a11.3,11.3,0,0,1,2.58-.31,10.89,10.89,0,0,1,6,1.84,8.37,8.37,0,0,0,3.93,1.38l5.33.49q1,.09,2,.09a22.41,22.41,0,0,0,6.19-.87l10.25-2.92,26.06-8.35v-7.84a1.2,1.2,0,0,1,.69.44l2.9,3.72a10.59,10.59,0,0,0,8.36,4.09,6.59,6.59,0,0,0,5.28-2.64l.27-.36a2.5,2.5,0,0,1,1.45-.93l.19.19A9.39,9.39,0,0,0,252,160a14.61,14.61,0,0,0,9.36-3.39,8,8,0,0,0,2.89-6.17v-44.7a2.2,2.2,0,0,1,.45-1.33,12.78,12.78,0,0,0,2.55-7.67v-1.4a3,3,0,0,1,1.23-2.44,9.39,9.39,0,0,0,3.22-3.75,16.89,16.89,0,0,0,1.55-7.65A15.21,15.21,0,0,0,271.66,74.58ZM228.25,79l.32,0a7.67,7.67,0,0,1,4.05,2,8.49,8.49,0,0,1,2.6,6.41A16.1,16.1,0,0,1,233.53,95a7.59,7.59,0,0,1-1.3,1.77c-.37.07-1.07.81-1.07.81a3,3,0,0,1-1.44.38,3.33,3.33,0,0,1-2-.76,8.42,8.42,0,0,1-2.47-3.76,17.42,17.42,0,0,1-1-6,20,20,0,0,1,.73-6.6,3,3,0,0,1,1-1.44,2.91,2.91,0,0,1,1.73-.46Zm6.92,14.79a18.48,18.48,0,0,0,1.05-6.32,9.49,9.49,0,0,0-2.91-7.14,8.9,8.9,0,0,0-3.9-2.14L233,74.66a18.68,18.68,0,0,1,3.87,2.17,11.24,11.24,0,0,1,2.72,2.82,7,7,0,0,1,1.16,3.85c0,2,.2,3.85.2,5.44a9.76,9.76,0,0,1-.32,2.77,5.12,5.12,0,0,1-2.4,3.09,14.66,14.66,0,0,1-4.41,1.68A11.67,11.67,0,0,0,235.17,93.82ZM223.25,60.43l0-15.26a35.88,35.88,0,0,0,8.49,1.18V61.64A27.29,27.29,0,0,1,223.25,60.43ZM218,56.85l-.23-14.08a14.54,14.54,0,0,0,1.84,1.07c.48.23,1,.46,1.59.68l0,15.06a10.83,10.83,0,0,1-1.36-.82,7.43,7.43,0,0,1-1.84-1.85ZM216.93,70A10.36,10.36,0,0,1,219,71.91a12.74,12.74,0,0,1,2.76,8.41c0,.19,0,.38,0,.58a6.16,6.16,0,0,1-5.87,5.88l-1.93.1a3.92,3.92,0,0,0,.41-.62c.75-1.46.87-3.64.87-6.76a20.63,20.63,0,0,0-1.4-7.77,8.74,8.74,0,0,0-1.31-2.23h3.6l.11.06Zm-10.2,11.6a16.49,16.49,0,0,1-.51-4.1,18.48,18.48,0,0,1,.83-6.39,3.77,3.77,0,0,1,1.08-1.59,2.43,2.43,0,0,1,1.59-.52,2.08,2.08,0,0,1,.5.07l.86.43a3.18,3.18,0,0,1,.36.3,9.13,9.13,0,0,1,2,3.93,21.53,21.53,0,0,1,.76,5.77,18.54,18.54,0,0,1-.57,5.89,2.45,2.45,0,0,1-.88,1.22,2.66,2.66,0,0,1-1.55.39,3,3,0,0,1-1.83-.68,7.61,7.61,0,0,1-2.26-3.4c0-.08,0-.16-.07-.23A4.86,4.86,0,0,0,206.73,81.6ZM216,56.71a.9.9,0,0,0,0,.68l.18,11.11h-4.83a3.1,3.1,0,0,0-1.65-.5,4,4,0,0,0-1.05.15,13.65,13.65,0,0,0,.2-2.21c0-6.73-4.5-13.88-8.93-19.41a83.83,83.83,0,0,0-8.4-9l24.68-6.65v7.59Zm9.21-22.28,0,0L224.33,12l3.14,1.35V40.28l-2.25-.2ZM229.47,14h9.75V41.29l-9.75-.84Zm29.75,36.5v6a24.07,24.07,0,0,1-2.53,1.87V51.27c.8-.24,1.65-.51,2.53-.8Zm-18,1.18a9.21,9.21,0,0,0,2.55.92l.4,7.49a10.65,10.65,0,0,1-1.22-.53,12.65,12.65,0,0,1-1.56-.92.88.88,0,0,0-.17-.12Zm5,9-.42-7.81a11.63,11.63,0,0,0,1.2,0,32,32,0,0,0,7.7-1.09v7.65a14,14,0,0,1-6.05,1.45A13.17,13.17,0,0,1,246.21,60.68Zm11-11.66a45.59,45.59,0,0,1-6.6,1.59l.58-16.89,6-2.13Zm-8.61,1.82a15.62,15.62,0,0,1-1.62.07,9.4,9.4,0,0,1-5-1.06,3.64,3.64,0,0,1-.79-.63l0,0V31.34l8,2.4Zm-7.39-37.37,1.28-1.06.72,10a17,17,0,0,0-2,1.17Zm-2,47.65c-2,.26-3.84.42-5.5.49V46.38c1.68,0,3.52-.1,5.5-.28Zm.47,2-.78,12.86a17.86,17.86,0,0,0-2.85-2,18.15,18.15,0,0,0-1.88-.94l-.41-9.4Q236.46,63.51,239.69,63.08Zm1.53-.55V60.9c.26.15.53.3.84.45a14.73,14.73,0,0,0,6.58,1.57A17.62,17.62,0,0,0,259.22,59v5.4l.83.41a2.11,2.11,0,0,1,1.17,1.9v.81a10.69,10.69,0,0,1-3.83,2.25,15,15,0,0,1-4.74.71,27.47,27.47,0,0,1-8.29-1.46c-1.12-.36-2.05-.73-2.7-1l-.26-.11Zm14.89-37.32a5.19,5.19,0,0,1,1,1.26,1.87,1.87,0,0,1,.14.3v2.7l-7,2.48-9-2.69v-3a4.47,4.47,0,0,1,.95-.88,14,14,0,0,1,2.08-1.23l.84-.2a20.87,20.87,0,0,1,5.1-.71C253.45,23.27,255.13,24.29,256.11,25.21Zm-30-18.93A9,9,0,0,1,229,4a10.5,10.5,0,0,1,4.71-1,10.81,10.81,0,0,1,4.71.94A7,7,0,0,1,241.61,7a6.34,6.34,0,0,1,.52,1.28,2.6,2.6,0,0,1,.09.36v0l.09,1.27L239.86,12H229.43l-5.19-2.23V9.69A10.31,10.31,0,0,1,226.15,6.28Zm-2.93,29.15v6.49l16,1.38v.79c-2.14.2-4.09.29-5.85.29-6.51,0-10.51-1.19-12.86-2.34a10.88,10.88,0,0,1-2.39-1.53,4.55,4.55,0,0,1-.37-.35l-.66-1.67Zm-77-18.29c20.51-5.31,32.31-6.64,38.91-6.64a23.89,23.89,0,0,1,6.56.69,5.1,5.1,0,0,1,1,.39l.08,0,.23.24.41.1c11.41,2.73,17.15,6.28,20,9.12a10.76,10.76,0,0,1,2.49,3.57,4.91,4.91,0,0,1,.39,1.69v3.55L182.57,39a9.48,9.48,0,0,1-2.48.32c-.27,0-.55,0-.82-.05a2,2,0,0,0-.39-.19l0,.16A9.48,9.48,0,0,1,175.39,38L143.23,19.78A4.33,4.33,0,0,1,146.19,17.14ZM70.56,40.39a23.25,23.25,0,0,1,6.94-2.84l18.19-4.2a33.85,33.85,0,0,1,7.51-.85h9.13L123.12,31l.87,1a3.66,3.66,0,0,1,.64,3.9l-1.89,4.43-27.69,8a17.28,17.28,0,0,1-4.9.7H70.92l-5-4.76,1-1.67Zm-5.13,4.72,4.76,4.57-.8,5.61-5-2A2.87,2.87,0,0,1,63,49.12ZM71.16,50h19a17.7,17.7,0,0,0,2.07-.13v7.58l-21.86-1.9Zm22.06-.27a18.91,18.91,0,0,0,2.11-.47l27.68-8,3,4.55a2.52,2.52,0,0,1,.44,1.43A2.66,2.66,0,0,1,126,48.8a2.57,2.57,0,0,1-1.45.94L93.22,57.35Zm-64.68-.85a14.57,14.57,0,0,1,2.27-.18,13.8,13.8,0,0,1,6.93,1.86l5.32,3.08,12.8-4.27,7.38-4.51-2,3.22a4.87,4.87,0,0,0,2.34,7.05l5.89,2.35,23.31,2L125,51.69a4.6,4.6,0,0,0,2.74-7l-2.85-4.27,1.61-3.77a5.65,5.65,0,0,0,.46-2.24,5.71,5.71,0,0,0-.72-2.73,33.33,33.33,0,0,1,3.84,1.91,16.59,16.59,0,0,1,4,3.17,5.75,5.75,0,0,1,1.64,3.76c0,3.16-1.63,6.53-3.33,9.07a33.65,33.65,0,0,1-2.33,3.08c-.32.37-.58.66-.77.85l-.13.14-.08,0c-1.5.55-8.42,3-16.93,5.33s-18.63,4.5-26.43,4.5A87.14,87.14,0,0,1,64.11,61a26.42,26.42,0,0,1-6.42-2.45,6.18,6.18,0,0,1-1.57-1.23,1.41,1.41,0,0,1-.4-.85h-2a3.37,3.37,0,0,0,.87,2.14,11.57,11.57,0,0,0,4.26,2.74,50.17,50.17,0,0,0,11.34,3A100.39,100.39,0,0,0,85.72,65.5c8.69,0,19.73-2.53,28.65-5s15.68-5,15.7-5l.21-.08.15-.15a32.53,32.53,0,0,0,3.63-4.53c1.79-2.71,3.65-6.34,3.66-10.18a7.87,7.87,0,0,0-2.39-5.36,24,24,0,0,0-7.5-4.95l-.42-.19.17-.37,1.39-3a8,8,0,0,1,5.93-4.5l8-1.33,0-.09,32,18.16A10.63,10.63,0,0,0,179,40.2a3.49,3.49,0,0,1,1,1.34A14.73,14.73,0,0,1,181.07,46c.07.62.1,1.17.12,1.6l-7.78,1.3,1.67,1.4a10.28,10.28,0,0,1,2,2.79,72.82,72.82,0,0,1,4.3,10.21c2.21,6.25,4.36,13.74,6,20.37.8,3.31,1.46,6.41,1.91,9,.18,1,.33,1.95.44,2.8-5.71-5.8-9.83-7.12-12.38-7.12a5,5,0,0,0-2.88.74h0l0,0c-2.13,1.9-5.82,3.4-10.18,4.38A66.22,66.22,0,0,1,150,95a51.83,51.83,0,0,1-13.08-1.48,17.35,17.35,0,0,1-4.48-1.82,5.06,5.06,0,0,1-2.22-2.38,4,4,0,0,0-1.4-1.8,8.26,8.26,0,0,0-2.91-1.25l.12-.19a6.84,6.84,0,0,1-2.67-3.55,14.9,14.9,0,0,1-.74-5.07c0-4.26,1.09-9.12,1.63-12.89a8.41,8.41,0,0,1,4.14-6.27,10.85,10.85,0,0,1,1.78-.85,3.61,3.61,0,0,0-.22.44,25.2,25.2,0,0,0-2.31,9.87,14,14,0,0,0,3.36,9.4c3.55,4,6.4,6.41,9.34,7.75s5.88,1.59,9.41,1.59a30.91,30.91,0,0,0,5.65-.76c6.77-1.38,16.41-4.33,21.75-6A5,5,0,0,0,180.61,75a5.17,5.17,0,0,0-.27-1.64L173,52.05a5.68,5.68,0,0,0-5.36-3.82,6.29,6.29,0,0,0-1.14.11h0l-33.18,6.81a4.81,4.81,0,0,0-2,.91,11.59,11.59,0,0,0-3.52,1.39,9.42,9.42,0,0,0-4.61,7c-.53,3.71-1.64,8.6-1.64,13a16,16,0,0,0,.8,5.41A8.24,8.24,0,0,0,124.3,86a32.88,32.88,0,0,0-4.78-.3c-5.49,0-12.46.86-19.47,1.71a176.32,176.32,0,0,1-19.6,1.71c-.94,0-1.84,0-2.7-.08a15.93,15.93,0,0,1-10-4.85C63.41,80,60.2,74,58,68.73c-1.1-2.62-2-5-2.59-6.87l-.77-2.31a11.75,11.75,0,0,0-.47-1.27,1.17,1.17,0,0,0-.7-.58,2.73,2.73,0,0,0-.92-.13,13.85,13.85,0,0,0-3.48.64,80.69,80.69,0,0,0-8.7,3.23A56.79,56.79,0,0,0,33,53a19.51,19.51,0,0,0-5.71-3.77A6.33,6.33,0,0,1,28.54,48.88ZM202.26,152.24a2.79,2.79,0,0,1-.16.46h0a9.83,9.83,0,0,1-1.54.87,3.85,3.85,0,0,1-1.47.33,4.19,4.19,0,0,1-2.66-1.15,20,20,0,0,1-3.86-4.79,3.19,3.19,0,0,0-1.07-1,6.21,6.21,0,0,0-2.28-.79,16.67,16.67,0,0,0-3-.23c-4.61,0-11.26,1.18-18.74,2.93-19.61,4.59-44.78,13.16-50.79,15.24V121.3c3.68-.81,19.73-4.37,36-8.33,9.26-2.25,18.58-4.63,25.73-6.7,3.58-1,6.61-2,8.84-2.83a26.4,26.4,0,0,0,2.74-1.17,6.83,6.83,0,0,0,.91-.56,2.23,2.23,0,0,0,.69-.76,3.74,3.74,0,0,0,.28-1A10.06,10.06,0,0,0,192,98.8a62.1,62.1,0,0,0-1.62-11,220.89,220.89,0,0,0-6.43-23.33,101.13,101.13,0,0,0-3.83-9.88A33.17,33.17,0,0,0,178.22,51c-.19-.31-.38-.58-.57-.85l3.51-.58.44.9c1.73,3.49,6.06,12.34,10.07,21.18,2,4.42,3.92,8.84,5.39,12.58.74,1.86,1.36,3.56,1.82,5a20.11,20.11,0,0,1,.85,3.36c.36,2.9,1.14,11.67,1.82,21.66s1.27,21.22,1.27,29.08c0,2.81-.08,5.19-.25,6.9A12.94,12.94,0,0,1,202.26,152.24ZM85.5,156.36a6.33,6.33,0,0,0-2.09.35,6,6,0,0,0-3.26,2.86,13.38,13.38,0,0,0-1.41,6.18l-.11-.3c-1.16-3.16-2.65-8.48-3.84-13-.6-2.25-1.12-4.31-1.5-5.79-.32-1.31-.54-2.17-.58-2.37L66.39,101.9a45.82,45.82,0,0,0,7.68,8c7.22,5.94,18.73,11.86,35.66,11.85,1.61,0,3.28-.07,5-.18v43.63a1.66,1.66,0,0,1-.41.25,5.3,5.3,0,0,1-2.13.34,27.74,27.74,0,0,1-8.32-1.76,123.53,123.53,0,0,1-16.68-7.41l-.09,0-.09,0A5.61,5.61,0,0,0,85.5,156.36ZM175,89.9ZM161.13,79.44a9.63,9.63,0,0,1-7.28,2.9A19,19,0,0,1,141.42,77c-4.19-3.85-6.43-8.77-6.43-13a9.27,9.27,0,0,1,2.33-6.43,8.15,8.15,0,0,1,2-1.61l6.1-1.25A19.4,19.4,0,0,1,157,60c4.19,3.85,6.43,8.77,6.42,13A9.31,9.31,0,0,1,161.13,79.44ZM136.58,56.88A10.31,10.31,0,0,0,134,64c0,4.59,2.39,9.73,6.75,13.74a20,20,0,0,0,13.11,5.61,10.58,10.58,0,0,0,8-3.22l-.36-.34.36.34A10.27,10.27,0,0,0,164.45,73c0-4.59-2.38-9.73-6.74-13.74a21.5,21.5,0,0,0-9.42-5.15l18.62-3.82-.2-1,.2,1a3.71,3.71,0,0,1,.74-.07,3.66,3.66,0,0,1,3.46,2.47L178.45,74a3,3,0,0,1-1.94,3.84c-3.54,1.13-9,2.81-14.2,4.2-2.6.7-5.14,1.33-7.34,1.77a28.9,28.9,0,0,1-5.25.72c-3.46,0-6-.25-8.58-1.41s-5.21-3.3-8.66-7.25a11.89,11.89,0,0,1-2.87-8.08,23.24,23.24,0,0,1,2.13-9.05,2.78,2.78,0,0,1,2-1.6l3.32-.68C136.9,56.58,136.73,56.72,136.58,56.88ZM21.72,60h.41a22.51,22.51,0,0,1,3.09,11.5A12.3,12.3,0,0,1,25,74.21a1.26,1.26,0,0,1-.15.41l-.11-.1a4.54,4.54,0,0,1-.65-1,25.12,25.12,0,0,1-1.89-5.15,13.75,13.75,0,0,0-3.49-5.95,3.19,3.19,0,0,1,.83-1.53A3,3,0,0,1,21.72,60ZM10.88,118.12l9.57-2.25,0,.1h0l8.94-2.36c.25.26.61.66,1,1.2L6.2,120.66A10.11,10.11,0,0,1,10.88,118.12Zm18.84-9.24a6,6,0,0,1,.46-2.5A2.35,2.35,0,0,1,31.85,105a4,4,0,0,1,1.08-.14c1.6,0,3.21.88,4.68,2.69a21.24,21.24,0,0,1,3.63,8.08c1.38,5.53,3.7,13.41,3.7,19.64a12.6,12.6,0,0,1-1.63,7,5.18,5.18,0,0,1-1.44,1.52,2.35,2.35,0,0,1-1.32.42,3.21,3.21,0,0,1-1.9-.75,9.35,9.35,0,0,1-2.44-3.24,10.31,10.31,0,0,1-.91-2.79l.2,0,.17-.51a26.83,26.83,0,0,0,1.45-8.58,23.55,23.55,0,0,0-3.34-12.12,19.7,19.7,0,0,0-3.39-4.36l-.4-.36h0A14.38,14.38,0,0,1,29.72,108.88Zm2.42,8.38q.2.34.39.72l-26,6.55c-.52-.61-1-1.12-1.43-1.54l26.64-6.43C31.85,116.79,32,117,32.14,117.26Zm1.27,2.56a21.52,21.52,0,0,1,1.48,5.25l-24.52,7.2a16.21,16.21,0,0,0-2.57-6ZM10.59,134.29l24.49-7.19c0,.38,0,.75,0,1.14,0,.62,0,1.26-.08,1.92l-24.71,7.19a13.18,13.18,0,0,0,.28-2.67C10.61,134.55,10.59,134.42,10.59,134.29ZM3,128.78a15,15,0,0,1,.13-2l0-.13a10,10,0,0,1,.55-2.19,21.23,21.23,0,0,1,1.94,2.21,13.58,13.58,0,0,1,3,8A11.12,11.12,0,0,1,8.09,138l-.15,0,.06.21c-.12.36-.26.74-.43,1.12a6.43,6.43,0,0,1-1.38-1.28A15.19,15.19,0,0,1,3,128.78Zm8.84,11.51a5.4,5.4,0,0,1-1,.08,6,6,0,0,1-1.46-.19c.08-.18.15-.36.22-.55l25.13-7.3a27.7,27.7,0,0,1-.83,3.35L25,138l0,.07Zm16.08,1.28c-.26-.78-.44-1.4-.57-1.82,0-.1-.05-.18-.07-.26l7-1.85A12.16,12.16,0,0,0,36.07,142a8.93,8.93,0,0,0,2,2.24,4.19,4.19,0,0,0,2.51,1,3.44,3.44,0,0,0,1.87-.58,6.22,6.22,0,0,0,1.72-1.8,13.65,13.65,0,0,0,1.8-7.52c0-6.46-2.36-14.37-3.73-19.88a22.13,22.13,0,0,0-3.82-8.47,7.18,7.18,0,0,0-5.46-3.06,5.56,5.56,0,0,0-1.33.16A3.46,3.46,0,0,0,29.27,106a7.09,7.09,0,0,0-.55,2.92,14.45,14.45,0,0,0,.3,2.77l-7.89,2.08a85.54,85.54,0,0,1-.8-11.42,64.65,64.65,0,0,1,.44-7.78c.11-.9.21-1.59.29-2,0-.23.08-.4.1-.51l0-.12v0h0l0-.23-.47-5.21L23.86,83a13,13,0,0,1,5.51-2,5.46,5.46,0,0,1,.82-.06,8.9,8.9,0,0,1,5,1.81c2.72,1.89,5.69,5.38,8.49,10.72a91.14,91.14,0,0,1,7.58,21.76c3.16,13.68,4.36,24.28,4.36,32.22,0,7.08-1,12.05-2.31,15.17a7,7,0,0,1-3.1,3.45A8.92,8.92,0,0,1,46,167.12h-.27a10.71,10.71,0,0,1-3.93-.77,6.71,6.71,0,0,1-2.52-1.72,81.68,81.68,0,0,1-9-16.7C29.19,145.35,28.42,143.13,27.92,141.57ZM29.63,79a18.78,18.78,0,0,1,6-1.17,10.71,10.71,0,0,1,6.78,2.32c3,2.31,5.64,6.47,8.21,12.33s5.12,13.39,8.12,22.37a86.61,86.61,0,0,1,4.75,27.38,59.78,59.78,0,0,1-2,15.83A38.28,38.28,0,0,1,60,162.68a18.82,18.82,0,0,1-1.1,2.31,1.79,1.79,0,0,1-.63.44,13.5,13.5,0,0,1-3.26.92c-.71.12-1.46.22-2.22.31a8.94,8.94,0,0,0,2.38-3.27c1.5-3.49,2.47-8.68,2.47-15.95,0-8.14-1.23-18.87-4.41-32.66-2.89-12.51-6.7-21.38-10.72-27.2a25.41,25.41,0,0,0-6.16-6.48,10.82,10.82,0,0,0-6.13-2.17C30,78.93,29.81,79,29.63,79ZM45.7,175.73c-1.83-2.79-3.24-5.26-4.19-7-.07-.14-.13-.26-.2-.38a12.85,12.85,0,0,0,4.14.8h.49c1,0,3.53-.1,6.18-.37a34.88,34.88,0,0,0,5-.82,10.28,10.28,0,0,0,2-.7A3.39,3.39,0,0,0,60.58,166a20.07,20.07,0,0,0,1.24-2.56,56.71,56.71,0,0,0,3.71-21.25,88.35,88.35,0,0,0-4.86-28c-4-12-7.18-21.42-10.86-28a25,25,0,0,0-6.13-7.65,12.81,12.81,0,0,0-8-2.73A24.68,24.68,0,0,0,25.3,78.6l-.18.08-2.59,2.83a10.33,10.33,0,0,0-1.1.88,9.3,9.3,0,0,0-.94,1L18.72,63.93a12,12,0,0,1,2.52,4.69A28.5,28.5,0,0,0,22.75,73a10.78,10.78,0,0,0,.94,1.75,2.9,2.9,0,0,0,.51.58,1.18,1.18,0,0,0,.71.3.93.93,0,0,0,.73-.41,3.1,3.1,0,0,0,.45-1.35,17.09,17.09,0,0,0,.13-2.41,23.56,23.56,0,0,0-3-11.6V55.16a6.34,6.34,0,0,1,2.86-5.28,16.7,16.7,0,0,1,6.26,3.87c4.26,3.84,8.88,10.09,13.36,17.62A203.81,203.81,0,0,1,58.26,96.69c5,11.92,8.47,29.4,10.84,45.76s3.63,31.59,4.12,39.08c.14,2,.2,3.61.2,4.86a15.65,15.65,0,0,1-.18,2.78,2,2,0,0,1-.12.39,4.59,4.59,0,0,1-.66-1.05,66.24,66.24,0,0,1-3.26-9.15A29.67,29.67,0,0,0,66.68,173a5.62,5.62,0,0,0-1.19-1.49,2,2,0,0,0-1.33-.52,2.4,2.4,0,0,0-1.58.71,9,9,0,0,0-1.27,1.57,3.43,3.43,0,0,0-.49,1.93,12.8,12.8,0,0,0,.75,3.78,69.48,69.48,0,0,0,2.61,6.47,41.2,41.2,0,0,1,2.06,5.22,11,11,0,0,1,.35,2.59,6.7,6.7,0,0,1-.17,1.51,8.92,8.92,0,0,1-5-1.7C54.73,188.1,49.36,181.3,45.7,175.73Zm177.52-25.16v7.84l-23.93,7.65L189.09,169a19.56,19.56,0,0,1-5.37.75c-.59,0-1.18,0-1.77-.08l-5.33-.48a5.51,5.51,0,0,1-2.54-.9,13.86,13.86,0,0,0-7.71-2.34,13.65,13.65,0,0,0-3.29.4L131,174.14l-.3.3a14.19,14.19,0,0,1-6.42,3.7l-22.64,6a18.76,18.76,0,0,1-4.89.64c-.42,0-.84,0-1.26,0l-12-.8L78,186.7l.29,1.16a3.64,3.64,0,0,1,.1.79,3.24,3.24,0,0,1-2,3l-6.09,2.44a9.56,9.56,0,0,1-2.8.64,8.18,8.18,0,0,0,.14-1.51,11.89,11.89,0,0,0-.38-2.83,68.34,68.34,0,0,0-3-7.52c-.62-1.44-1.21-2.9-1.64-4.24a12.2,12.2,0,0,1-.7-3.47,2.43,2.43,0,0,1,.32-1.37,7.17,7.17,0,0,1,1.12-1.39,1.38,1.38,0,0,1,.9-.45,1,1,0,0,1,.69.29,6.67,6.67,0,0,1,1.53,2.28,37.93,37.93,0,0,1,1.86,5.13c.88,2.93,1.76,5.61,2.55,7.57a17.5,17.5,0,0,0,1.11,2.37,4,4,0,0,0,.54.72,1.08,1.08,0,0,0,.75.37.75.75,0,0,0,.44-.15,1.28,1.28,0,0,0,.43-.58,5.59,5.59,0,0,0,.27-1.37,21.73,21.73,0,0,0,.09-2.18c0-1.28-.06-2.91-.2-4.92-.5-7.51-1.75-22.77-4.13-39.17s-5.87-33.91-10.9-46S48.09,72.56,42,63.74c-.34-.5-.69-1-1-1.47l.88-.38c1.33-.55,3.42-1.39,5.47-2.09a19.63,19.63,0,0,1,5.22-1.23,1.74,1.74,0,0,1,.59.07.54.54,0,0,1,.14.08c0,.08.12.3.23.61.41,1.17,1.17,3.61,2.3,6.62A63.18,63.18,0,0,0,63.66,81a26.73,26.73,0,0,0,6.16,6.13A15.5,15.5,0,0,0,77.69,90c.88,0,1.8.08,2.76.08a176.46,176.46,0,0,0,19.72-1.72,177.78,177.78,0,0,1,19.35-1.7,24.54,24.54,0,0,1,6.63.71,6.68,6.68,0,0,1,2,.95,3,3,0,0,1,1.07,1.36,6,6,0,0,0,2.63,2.87,22.67,22.67,0,0,0,7.7,2.6A58.94,58.94,0,0,0,150,96a67.13,67.13,0,0,0,14.46-1.51c4.43-1,8.22-2.51,10.59-4.59h0a4.24,4.24,0,0,1,2.29-.54c2.3,0,6.49,1.25,12.56,7.76.06.65.09,1.22.09,1.68a5.4,5.4,0,0,1-.05.89,1.19,1.19,0,0,1-.07.33,5.52,5.52,0,0,1-1.27.73,57.34,57.34,0,0,1-6.28,2.28c-9.66,3-26.38,7.17-40.65,10.53-7.14,1.69-13.68,3.18-18.42,4.24l-5.64,1.27-2,.44q-3,.22-5.85.23c-16.46,0-27.45-5.71-34.39-11.39a44.64,44.64,0,0,1-7.47-7.81c-.79-1.06-1.36-2-1.73-2.56-.18-.3-.31-.54-.4-.7l-.1-.18,0,0h0l-2.81-5.61.92,6.21,7,47v.05s1.47,6.07,3.16,12.15c.84,3,1.74,6.08,2.54,8.39a28.25,28.25,0,0,0,1.12,2.86,5.83,5.83,0,0,0,.55.94,2.39,2.39,0,0,0,.39.39,1.25,1.25,0,0,0,.77.27,1.18,1.18,0,0,0,.67-.2,1.51,1.51,0,0,0,.51-.67,3.85,3.85,0,0,0,.21-1,13.58,13.58,0,0,0,0-1.37A15.2,15.2,0,0,1,81.3,162a5.19,5.19,0,0,1,2-3,4,4,0,0,1,2.17-.6,4.21,4.21,0,0,1,.72.06l.16,0a123.07,123.07,0,0,0,16.84,7.46,29.3,29.3,0,0,0,9,1.87,6.36,6.36,0,0,0,3.48-.8,2.6,2.6,0,0,0,.72-.65l2-.68c5.16-1.78,18.32-6.22,32.12-10.21,6.89-2,13.95-3.88,20.23-5.26a80.3,80.3,0,0,1,15.55-2.26,13,13,0,0,1,3.28.34,3.54,3.54,0,0,1,.92.38,1.4,1.4,0,0,1,.43.39,21.6,21.6,0,0,0,4.28,5.28,6.23,6.23,0,0,0,3.93,1.6,5.78,5.78,0,0,0,2.25-.49,12.24,12.24,0,0,0,1.94-1.09,1.81,1.81,0,0,0,.61-.74,6.32,6.32,0,0,0,.47-1.6,56.7,56.7,0,0,0,.46-8.63c0-8-.59-19.2-1.27-29.22s-1.46-18.77-1.83-21.76A25.27,25.27,0,0,0,200.57,88C198.48,81.78,194,71.83,190,63.39s-7.41-15.33-7.41-15.34l-.33-.66-.1,0a28.2,28.2,0,0,0-.35-3.12,12.84,12.84,0,0,0-.93-3.18,6.71,6.71,0,0,0-.51-.86,10,10,0,0,0,2.43-.34l7.57-2h0l.2.17A83,83,0,0,1,200,48.2c4.09,5.28,7.9,11.86,7.89,17.74a12.69,12.69,0,0,1-.31,2.76l-.05,0a5.91,5.91,0,0,0-1.81,3.37,24.77,24.77,0,0,0-.48,5.39,18.09,18.09,0,0,0,.38,3.69,1.53,1.53,0,0,0-.69.17,2.17,2.17,0,0,0-.85.93,7.7,7.7,0,0,0-.62,2.38,34.23,34.23,0,0,0-.22,4.33c0,5,.5,17.54,1,28.79A144.84,144.84,0,0,0,206.84,139a4.68,4.68,0,0,0,1.74,1.74l9.36,5.34a4.06,4.06,0,0,0,3.75,2.39h.72v-.09a6,6,0,0,0,.89.93,7.42,7.42,0,0,0,1.08.75,2.33,2.33,0,0,0-.33.14Zm-8-37.67A31.59,31.59,0,0,0,221,115a33.16,33.16,0,0,0,5.52,1,6,6,0,0,0,.74.06h.5v0h0v9.7a9.75,9.75,0,0,1-3.27,7.29l-2.19,1.95a14.23,14.23,0,0,0-4.44,7.55l-.2.9a4.09,4.09,0,0,0-.1.91c0,.15,0,.28,0,.42l-8.49-4.85a3.69,3.69,0,0,1-1.62-4.51l.73-2a12.73,12.73,0,0,1,2.94-4.57l1.71-1.71a8.17,8.17,0,0,0,2.39-5.78ZM227.37,115l-.77,0a4.62,4.62,0,0,1-2.87-1.8,7.88,7.88,0,0,1,0-9.28,4.21,4.21,0,0,1,7,0,7.93,7.93,0,0,1,0,9.28A4.5,4.5,0,0,1,227.37,115Zm-4.43-11.75a8.9,8.9,0,0,0,0,10.52,7.16,7.16,0,0,0,.75.8A31.77,31.77,0,0,1,218,113a12,12,0,0,1-1.31-5.18,7.75,7.75,0,0,1,1.41-4.54c1.06-1.47,5.59-4.42,5.59-4.42l2.7,2.21A5.67,5.67,0,0,0,222.94,103.24Zm-5.62-.53a8.65,8.65,0,0,0-1.6,5.12,12.74,12.74,0,0,0,1,4.64,25.83,25.83,0,0,1-8-5.26,5.83,5.83,0,0,1-1.54-5.85l.86-2.88A6.54,6.54,0,0,1,212.73,94l1.05-.26a5.67,5.67,0,0,1,1.41-.17,5.76,5.76,0,0,1,3.66,1.31l4.43,3.62A12.49,12.49,0,0,0,217.32,102.71ZM228.22,150a7.61,7.61,0,0,1-1.08-.09,3.9,3.9,0,0,0-.57-.13,6.29,6.29,0,0,1-2.62-1.27,4.43,4.43,0,0,1,0-7,6.88,6.88,0,0,1,8.55,0,4.44,4.44,0,0,1,0,7A6.67,6.67,0,0,1,228.22,150Zm36-54.66v1.4a9.76,9.76,0,0,1-2,5.87,5.2,5.2,0,0,0-1,3.13v44.7a5,5,0,0,1-1.81,3.87A11.62,11.62,0,0,1,252,157a6.34,6.34,0,0,1-4.48-1.86L246.35,154h-.63a5.52,5.52,0,0,0-4.4,2.2l-.27.36a3.58,3.58,0,0,1-2.88,1.44,7.58,7.58,0,0,1-6-2.93l-2.9-3.73a3.23,3.23,0,0,0-.37-.37,7.47,7.47,0,0,0,4.23-1.7,5.87,5.87,0,0,0,1.75-2.44,4,4,0,0,0,2.53,1.72h0l3.82.76a2.94,2.94,0,0,0,.65.07,3.34,3.34,0,0,0,3.33-3.34V105.87a6,6,0,0,0-3.29-5.33l-3.86-1.93a2.66,2.66,0,0,0-3.85,2.38v40.93a5.79,5.79,0,0,0-1.08-1.19,7.86,7.86,0,0,0-9.84,0,5.6,5.6,0,0,0-2.08,4.27,5.06,5.06,0,0,0,.21,1.41,2.1,2.1,0,0,1-1.28-.62,2.12,2.12,0,0,1-.63-1.52,1.93,1.93,0,0,1,0-.47l.2-.9a12.27,12.27,0,0,1,3.82-6.5l2.19-2a11.73,11.73,0,0,0,3.94-8.78l-.35-10.17a6.14,6.14,0,0,0,2.14-1.74,8.94,8.94,0,0,0,0-10.52,5.64,5.64,0,0,0-3.53-2.17l-8.5-7a6.77,6.77,0,0,0-4.29-1.53,6.65,6.65,0,0,0-1.65.2l-1,.26a7.57,7.57,0,0,0-5.4,5.15l-.86,2.88A6.79,6.79,0,0,0,206,103a6.87,6.87,0,0,0,2.08,4.92,26.06,26.06,0,0,0,6.37,4.57l-.18,8.82a7.14,7.14,0,0,1-2.1,5.07l-1.71,1.72a13.93,13.93,0,0,0-3.17,4.92l-.27.73c-.24-4.88-.6-12.55-.93-20.31-.43-10-.82-20.12-.82-24.45a21.83,21.83,0,0,1,.43-5.24c0-.13.06-.23.09-.32h0l0,0h0l.41-.26a11.6,11.6,0,0,0,.72,1.59,7.25,7.25,0,0,0,1.88,2.3,4,4,0,0,0,2.44.89,4.45,4.45,0,0,0,.53,0v0l4.18-.22a7.15,7.15,0,0,0,6.81-6.85c0-.2,0-.41,0-.61a13.76,13.76,0,0,0-3.13-9.23,11.66,11.66,0,0,0-1.4-1.36l-.16-9.87c.21.17.42.35.66.52,2.32,1.67,6.31,3.23,13.05,3.26l.39,9L227.25,78a3.66,3.66,0,0,0-1.83.61,5,5,0,0,0-1.79,3.24,28.44,28.44,0,0,0-.41,5.62,17.28,17.28,0,0,0,1.82,8,8,8,0,0,0,2,2.51,4.32,4.32,0,0,0,2.64,1,3.82,3.82,0,0,0,1.6-.36,36.25,36.25,0,0,0,5.91-1.13,8.69,8.69,0,0,0,4.65-3.68,9.75,9.75,0,0,0,1-4.89c0-1.74-.2-3.56-.2-5.44a9,9,0,0,0-1.57-5.07c-.11-.17-.24-.33-.36-.49l.48-7.89c.65.27,1.49.58,2.47.91a29.63,29.63,0,0,0,8.91,1.55A17.18,17.18,0,0,0,258,71.7a13,13,0,0,0,3.7-2l.51.17h0l.17.06,2.76,22.1A6.07,6.07,0,0,0,264.22,95.34Zm-29,49.31V101a1.62,1.62,0,0,1,.51-1.19,1.68,1.68,0,0,1,1.15-.47,1.65,1.65,0,0,1,.74.18l3.86,1.93a5,5,0,0,1,2.74,4.43V146a2.33,2.33,0,0,1-2.33,2.34,2.49,2.49,0,0,1-.46,0l-3.81-.76-.1.49.1-.49A3,3,0,0,1,235.22,144.65ZM269,87.81a6.54,6.54,0,0,1-2.2,2.6A5.55,5.55,0,0,0,266,91l-2.57-20.54a13,13,0,0,1,2.85,2A11.8,11.8,0,0,1,269,76a12.34,12.34,0,0,1,1.21,5.51A13.9,13.9,0,0,1,269,87.81Z"/><polygon class="cls-1" points="45.45 169.13 45.45 169.13 45.45 169.13 45.45 169.13"/><path class="cls-1" d="M153.62,63.71c-3.66-3.36-8.59-3.94-11-1.3s-1.43,7.51,2.23,10.88,8.59,3.94,11,1.3S157.28,67.08,153.62,63.71Z"/><ellipse class="cls-1" cx="227.22" cy="108.5" rx="2.5" ry="4"/><ellipse class="cls-1" cx="227.72" cy="145" rx="3" ry="2.5"/><ellipse class="cls-1" cx="228.72" cy="89" rx="1" ry="3.5"/><polygon class="cls-1" points="190.4 37.88 190.4 37.88 190.4 37.88 190.4 37.88"/><ellipse class="cls-1" cx="183.72" cy="20.5" rx="11.5" ry="3.5"/><ellipse class="cls-1" cx="185.72" cy="32" rx="5.5" ry="1"/><ellipse class="cls-1" cx="205.72" cy="27.5" rx="6.5" ry="1.5"/><ellipse class="cls-1" cx="180.72" cy="13" rx="5.5" ry="1"/><ellipse class="cls-1" cx="159.22" cy="18" rx="5" ry="1"/></g></g></svg>